<mxfile host="app.diagrams.net" modified="2021-07-27T05:16:15.973Z" agent="5.0 (Windows NT 6.1) AppleWebKit/537.36 (KHTML, like Gecko) Chrome/90.0.4430.212 Safari/537.36" etag="X9J0GHBDDRjgGluVlrIK" version="14.9.2" type="github">
  <diagram id="Y7snFeAdBdKZEt8ZPmqu" name="Page-1">
    <mxGraphModel dx="1422" dy="762" grid="1" gridSize="10" guides="1" tooltips="1" connect="1" arrows="1" fold="1" page="1" pageScale="1" pageWidth="827" pageHeight="1169" math="0" shadow="0">
      <root>
        <mxCell id="0" />
        <mxCell id="1" parent="0" />
        <mxCell id="U2sir3abipnIR9pF02Ca-2" value="" style="edgeStyle=orthogonalEdgeStyle;rounded=0;orthogonalLoop=1;jettySize=auto;html=1;" edge="1" parent="1" source="rHB09RxQEC3AA2iopNhL-1" target="U2sir3abipnIR9pF02Ca-1">
          <mxGeometry relative="1" as="geometry" />
        </mxCell>
        <mxCell id="U2sir3abipnIR9pF02Ca-6" value="" style="edgeStyle=orthogonalEdgeStyle;rounded=0;orthogonalLoop=1;jettySize=auto;html=1;fontSize=14;" edge="1" parent="1" source="rHB09RxQEC3AA2iopNhL-1" target="U2sir3abipnIR9pF02Ca-5">
          <mxGeometry relative="1" as="geometry" />
        </mxCell>
        <mxCell id="U2sir3abipnIR9pF02Ca-9" value="" style="edgeStyle=orthogonalEdgeStyle;rounded=0;orthogonalLoop=1;jettySize=auto;html=1;fontSize=15;" edge="1" parent="1" source="rHB09RxQEC3AA2iopNhL-1" target="U2sir3abipnIR9pF02Ca-8">
          <mxGeometry relative="1" as="geometry" />
        </mxCell>
        <mxCell id="U2sir3abipnIR9pF02Ca-12" value="" style="edgeStyle=orthogonalEdgeStyle;rounded=0;orthogonalLoop=1;jettySize=auto;html=1;fontSize=15;" edge="1" parent="1" source="rHB09RxQEC3AA2iopNhL-1" target="U2sir3abipnIR9pF02Ca-11">
          <mxGeometry relative="1" as="geometry" />
        </mxCell>
        <mxCell id="rHB09RxQEC3AA2iopNhL-1" value="INIT" style="ellipse;whiteSpace=wrap;html=1;aspect=fixed;" parent="1" vertex="1">
          <mxGeometry x="290" y="200" width="80" height="80" as="geometry" />
        </mxCell>
        <mxCell id="U2sir3abipnIR9pF02Ca-1" value="GT" style="ellipse;whiteSpace=wrap;html=1;aspect=fixed;" vertex="1" parent="1">
          <mxGeometry x="500" y="200" width="80" height="80" as="geometry" />
        </mxCell>
        <mxCell id="U2sir3abipnIR9pF02Ca-4" value="&amp;gt;" style="text;html=1;align=center;verticalAlign=middle;resizable=0;points=[];autosize=1;strokeColor=none;fontSize=14;fontStyle=1" vertex="1" parent="1">
          <mxGeometry x="410" y="220" width="20" height="20" as="geometry" />
        </mxCell>
        <mxCell id="U2sir3abipnIR9pF02Ca-5" value="GE" style="ellipse;whiteSpace=wrap;html=1;aspect=fixed;" vertex="1" parent="1">
          <mxGeometry x="290" y="360" width="80" height="80" as="geometry" />
        </mxCell>
        <mxCell id="U2sir3abipnIR9pF02Ca-7" value="&amp;lt;" style="text;html=1;strokeColor=none;fillColor=none;align=center;verticalAlign=middle;whiteSpace=wrap;rounded=0;fontSize=15;fontStyle=1" vertex="1" parent="1">
          <mxGeometry x="340" y="310" width="40" height="20" as="geometry" />
        </mxCell>
        <mxCell id="U2sir3abipnIR9pF02Ca-8" value="INT" style="ellipse;whiteSpace=wrap;html=1;aspect=fixed;" vertex="1" parent="1">
          <mxGeometry x="90" y="200" width="80" height="80" as="geometry" />
        </mxCell>
        <mxCell id="U2sir3abipnIR9pF02Ca-10" value="Number" style="text;html=1;align=center;verticalAlign=middle;resizable=0;points=[];autosize=1;strokeColor=none;fontSize=15;" vertex="1" parent="1">
          <mxGeometry x="196" y="212" width="70" height="20" as="geometry" />
        </mxCell>
        <mxCell id="U2sir3abipnIR9pF02Ca-11" value="ID" style="ellipse;whiteSpace=wrap;html=1;aspect=fixed;" vertex="1" parent="1">
          <mxGeometry x="290" y="40" width="80" height="80" as="geometry" />
        </mxCell>
        <mxCell id="U2sir3abipnIR9pF02Ca-13" value="Alpha" style="text;html=1;align=center;verticalAlign=middle;resizable=0;points=[];autosize=1;strokeColor=none;fontSize=15;" vertex="1" parent="1">
          <mxGeometry x="330" y="150" width="50" height="20" as="geometry" />
        </mxCell>
        <mxCell id="U2sir3abipnIR9pF02Ca-14" value="" style="curved=1;endArrow=classic;html=1;fontSize=15;exitX=0;exitY=1;exitDx=0;exitDy=0;entryX=0;entryY=0;entryDx=0;entryDy=0;" edge="1" parent="1" source="U2sir3abipnIR9pF02Ca-11" target="U2sir3abipnIR9pF02Ca-11">
          <mxGeometry width="50" height="50" relative="1" as="geometry">
            <mxPoint x="130" y="120" as="sourcePoint" />
            <mxPoint x="180" y="70" as="targetPoint" />
            <Array as="points">
              <mxPoint x="230" y="130" />
              <mxPoint x="240" y="20" />
            </Array>
          </mxGeometry>
        </mxCell>
        <mxCell id="U2sir3abipnIR9pF02Ca-15" value="Alpha&lt;br&gt;or&lt;br&gt;Number" style="text;html=1;strokeColor=none;fillColor=none;align=center;verticalAlign=middle;whiteSpace=wrap;rounded=0;fontSize=15;" vertex="1" parent="1">
          <mxGeometry x="187" y="60" width="40" height="20" as="geometry" />
        </mxCell>
      </root>
    </mxGraphModel>
  </diagram>
</mxfile>
